<?xml version="1.0" encoding="UTF-8" standalone="no"?>
<!-- Created with Inkscape (http://www.inkscape.org/) -->

<svg
   width="50mm"
   height="30mm"
   viewBox="0 0 50 30"
   version="1.1"
   id="svg656"
   inkscape:version="1.2.2 (b0a8486541, 2022-12-01)"
   sodipodi:docname="theartlab_logo.svg"
   xmlns:inkscape="http://www.inkscape.org/namespaces/inkscape"
   xmlns:sodipodi="http://sodipodi.sourceforge.net/DTD/sodipodi-0.dtd"
   xmlns="http://www.w3.org/2000/svg"
   xmlns:svg="http://www.w3.org/2000/svg">
  <sodipodi:namedview
     id="namedview658"
     pagecolor="#505050"
     bordercolor="#ffffff"
     borderopacity="1"
     inkscape:showpageshadow="0"
     inkscape:pageopacity="0"
     inkscape:pagecheckerboard="true"
     inkscape:deskcolor="#505050"
     inkscape:document-units="mm"
     showgrid="false"
     showborder="true"
     inkscape:zoom="2.2097881"
     inkscape:cx="132.5919"
     inkscape:cy="86.207363"
     inkscape:window-width="850"
     inkscape:window-height="860"
     inkscape:window-x="970"
     inkscape:window-y="120"
     inkscape:window-maximized="1"
     inkscape:current-layer="layer1" />
  <defs
     id="defs653" />
  <g
     inkscape:label="Layer 1"
     inkscape:groupmode="layer"
     id="layer1">
    <g
       id="g36"
       transform="matrix(0.35277777,0,0,-0.35277777,38.131954,20.507838)"
       inkscape:export-filename="theartlab_logo_h50.png"
       inkscape:export-xdpi="68.388542"
       inkscape:export-ydpi="68.388542">
      <path
         d="m 0,0 c 0,0.14 0.056,0.224 0.168,0.224 0.448,0 0.868,-0.281 0.868,-0.756 v -2.941 c 0,-0.475 -0.392,-0.811 -0.84,-0.811 C 0.056,-4.284 0,-4.2 0,-4.088 Z m 0,8.204 c 0,0.111 0.084,0.168 0.196,0.168 0.336,0 0.812,-0.225 0.812,-0.728 V 5.235 C 1.008,4.676 0.588,4.424 0.196,4.424 0.084,4.424 0,4.508 0,4.62 Z M -5.012,-8.177 c 0,-0.168 0.084,-0.307 0.28,-0.307 h 5.208 c 5.796,0 5.824,4.648 5.824,6.076 0,2.183 -1.176,4.059 -2.94,4.704 v 0.056 c 2.828,0.868 2.856,3.444 2.856,5.124 0,2.324 -2.072,5.04 -5.712,5.04 h -5.208 c -0.196,0 -0.308,-0.14 -0.308,-0.336 z m -7.587,7.448 c 0.028,-0.251 -0.056,-0.251 -0.952,-0.251 -0.14,0 -0.196,0.14 -0.168,0.28 l 0.364,2.66 c 0.056,0.448 0.112,0.644 0.196,0.644 0.084,0 0.14,-0.252 0.196,-0.644 z m -3.36,13.245 c -0.168,0 -0.308,-0.196 -0.336,-0.336 l -3.752,-20.189 c -0.056,-0.279 0.084,-0.475 0.336,-0.475 h 4.62 c 0.14,0 0.336,0.112 0.364,0.307 l 0.532,4.116 c 0.028,0.168 0.14,0.281 0.252,0.281 h 1.512 c 0.14,0 0.252,-0.084 0.28,-0.224 l 0.56,-4.2 c 0.028,-0.168 0.196,-0.28 0.364,-0.28 h 4.536 c 0.308,0 0.448,0.307 0.392,0.616 l -3.836,20.02 c -0.028,0.196 -0.168,0.364 -0.364,0.364 z M -26.291,-2.688 c -0.084,0 -0.168,0.084 -0.168,0.196 v 14.7 c 0,0.168 -0.112,0.308 -0.28,0.308 h -4.732 c -0.196,0 -0.364,-0.224 -0.364,-0.392 V -8.12 c 0,-0.196 0.14,-0.364 0.308,-0.364 h 10.024 c 0.168,0 0.308,0.139 0.308,0.307 v 5.209 c 0,0.14 -0.112,0.28 -0.308,0.28 z m -14.644,-5.796 c 0.224,0 0.392,0.168 0.392,0.364 V 6.468 c 0,0.252 0.14,0.391 0.336,0.391 h 2.8 c 0.224,0 0.392,0.168 0.392,0.393 v 4.928 c 0,0.224 -0.168,0.336 -0.364,0.336 h -11.984 c -0.168,0 -0.252,-0.112 -0.252,-0.28 V 7.252 c 0,-0.168 0.196,-0.393 0.364,-0.393 h 2.8 c 0.196,0 0.364,-0.139 0.364,-0.336 V -8.093 c 0,-0.223 0.196,-0.391 0.392,-0.391 z m -16.94,14.868 c 0,0.168 0.084,0.252 0.224,0.252 0.252,0 0.644,-0.365 0.644,-1.008 0,-1.288 0,-2.072 -0.672,-2.072 -0.14,0 -0.196,0.055 -0.196,0.252 z m -5.152,6.132 c -0.168,0 -0.308,-0.14 -0.308,-0.336 v -20.3 c 0,-0.225 0.14,-0.364 0.336,-0.364 h 4.788 c 0.196,0 0.336,0.168 0.336,0.336 v 8.96 c 0,0.196 0.028,0.335 0.196,0.335 0.308,0 0.7,-0.447 0.7,-1.343 v -4.312 c 0,-2.633 1.344,-4.033 3.36,-4.033 0.924,0 3.724,0.225 3.724,4.033 0,0.112 -0.112,0.308 -0.252,0.392 -0.616,0.252 -0.756,0.588 -0.756,0.924 0,2.856 0,4.675 -3.416,5.656 V 2.52 c 2.66,0.392 2.94,3.164 2.94,4.675 0,3.417 -2.94,5.321 -5.404,5.321 z m -7.895,-13.245 c 0.027,-0.251 -0.057,-0.251 -0.953,-0.251 -0.139,0 -0.195,0.14 -0.167,0.28 l 0.364,2.66 c 0.055,0.448 0.112,0.644 0.196,0.644 0.084,0 0.14,-0.252 0.195,-0.644 z m -3.36,13.245 c -0.168,0 -0.308,-0.196 -0.336,-0.336 l -3.753,-20.189 c -0.055,-0.279 0.084,-0.475 0.337,-0.475 h 4.619 c 0.141,0 0.336,0.112 0.365,0.307 l 0.531,4.116 c 0.029,0.168 0.141,0.281 0.252,0.281 h 1.513 c 0.14,0 0.252,-0.084 0.279,-0.224 l 0.56,-4.2 c 0.029,-0.168 0.197,-0.28 0.365,-0.28 h 4.536 c 0.307,0 0.448,0.307 0.391,0.616 l -3.835,20.02 c -0.028,0.196 -0.168,0.364 -0.364,0.364 z"
         style="fill:#f9b49f;fill-opacity:1;fill-rule:nonzero;stroke:none"
         id="path38" />
    </g>
    <g
       id="g44"
       transform="matrix(0.35277777,0,0,-0.35277777,26.850125,9.5243479)">
      <path
         d="M 0,0 C 0,0 2.994,3.739 15.476,3.739 27.96,3.739 30.376,0 30.376,0 c 0,0 -3.715,-2.598 -14.72,-2.598 C 4.651,-2.598 0,0 0,0"
         style="fill:#212752;fill-opacity:1;fill-rule:nonzero;stroke:none"
         id="path46" />
    </g>
    <g
       id="g48"
       transform="matrix(0.35277777,0,0,-0.35277777,26.436705,8.9278379)">
      <path
         d="m 0,0 c 0,-2.109 -0.099,-6.038 2.297,-7.284 1.497,-0.863 2.497,0.671 3.894,0.478 1.498,-0.192 1.399,-1.916 1.698,-2.971 0.799,-3.451 3.196,-3.259 5.194,-0.671 0.798,1.151 2.096,2.492 3.194,0.863 0.6,-0.958 -0.1,-2.683 0.5,-3.737 0.498,-0.958 2.097,-1.918 3.296,-1.438 1.298,0.48 1.298,2.396 1.896,3.354 0.5,1.054 1.898,2.396 3.196,1.821 1.298,-0.575 1.398,-2.874 2.096,-3.929 2.598,-3.93 4.595,1.821 4.894,3.929 0.4,2.684 0.998,5.463 1.198,8.147 C 23.168,-5.655 10.385,-4.793 0.099,-1.535"
         style="fill:#f9b49f;fill-opacity:1;fill-rule:nonzero;stroke:none"
         id="path50" />
    </g>
    <g
       id="g52"
       transform="matrix(0.35277777,0,0,-0.35277777,32.309754,7.4643379)">
      <path
         d="m 0,0 c -10.729,0 -16.582,-2.443 -16.582,-3.7 0,-1.255 5.853,-3.7 16.582,-3.7 10.73,0 16.583,2.445 16.583,3.7 C 16.583,-2.443 10.73,0 0,0 m 0,-9.2 c -9.134,0 -18.382,1.889 -18.382,5.5 0,3.611 9.248,5.5 18.382,5.5 9.135,0 18.383,-1.889 18.383,-5.5 0,-3.611 -9.248,-5.5 -18.383,-5.5"
         style="fill:#f9b49f;fill-opacity:1;fill-rule:nonzero;stroke:none"
         id="path54" />
    </g>
    <path
       d="m 20.713909,8.6367279 c 0,-0.1778 0.08326,-0.24906 0.1778,-0.24906 0.189794,0 0.201436,0.0832 0.201436,0.84173 0,0.0593 -0.03528,0.0593 -0.307975,0.0593 -0.03563,0 -0.07126,-0.0236 -0.07126,-0.0593 z m -1.991431,3.1294901 c 0,1.35114 0.723195,2.25178 1.991431,2.25178 1.090789,0 2.1336,-0.45014 2.1336,-1.96744 v -0.75847 c 0,-0.0713 -0.04727,-0.11889 -0.118533,-0.13053 l -1.528939,-0.0829 c -0.07126,0 -0.106892,0.0473 -0.106892,0.0945 v 0.7232 c 0,0.1778 -0.106539,0.24906 -0.189442,0.24906 -0.106538,0 -0.189794,-0.0713 -0.189794,-0.26071 v -1.8609 c 0,-0.0596 0.02399,-0.0949 0.07126,-0.0949 h 1.979436 c 0.05927,0 0.106539,-0.0476 0.106539,-0.10689 v -0.72284 c 0,-1.1617 -0.770114,-2.19286 -2.109611,-2.19286 -0.960261,0 -2.039056,0.5214 -2.039056,1.92016 z m -4.74098,2.14524 c 0,0.0473 0.04727,0.10654 0.0949,0.10654 h 1.694745 c 0.04763,0 0.0829,-0.0473 0.0829,-0.0945 V 9.0279979 c 0,-0.1778 0.0949,-0.23707 0.189795,-0.23707 0.0949,0 0.189794,0.0593 0.189794,0.23707 v 4.9074901 c 0,0.0473 0.03528,0.0825 0.0829,0.0825 h 1.635831 c 0.03528,0 0.07091,-0.0353 0.07091,-0.0709 V 8.1273179 c 0,-0.92463 -0.639939,-1.22096 -1.137708,-1.22096 -0.343959,0 -0.628298,0.15381 -0.829734,0.3436 -0.05927,0.0476 -0.106891,0.0713 -0.118533,0.0713 -0.01199,0 -0.03563,-0.0236 -0.03563,-0.10689 v -2.15724 c 0,-0.0713 -0.03563,-0.10653 -0.118533,-0.10653 h -1.671461 c -0.0829,0 -0.130175,0.0353 -0.130175,0.14216 z m -3.093861,-1.75436 c 0,1.4224 0.521758,1.8609 1.232958,1.8609 1.20897,0 1.20897,-1.17334 1.20897,-1.84891 0,-0.0709 -0.04762,-0.0709 -0.462492,-0.0709 -0.03563,0 -0.07091,-0.0476 -0.07091,-0.0952 V 8.8858379 c 0,-0.0949 0.04727,-0.0949 0.414514,-0.0949 0.04762,0 0.08325,-0.0356 0.08325,-0.0829 v -1.71873 c 0,-0.0829 -0.03563,-0.0829 -0.403225,-0.0829 -0.05927,0 -0.09454,-0.0356 -0.09454,-0.1069 v -0.99554 c 0,-0.0829 0,-0.10689 -0.118534,-0.10689 h -1.707091 c -0.04727,0 -0.0829,0.0356 -0.0829,0.0833 v 1.04281 c 0,0.0833 -0.02364,0.0833 -0.296333,0.0833 -0.02364,0 -0.04727,0.0353 -0.04727,0.0709 v 1.73073 c 0,0.0829 0.02364,0.0829 0.272345,0.0829 0.04762,0 0.07126,0.0356 0.07126,0.0829 z"
       style="fill:#f9b49f;fill-opacity:1;fill-rule:nonzero;stroke:none;stroke-width:0.352778"
       id="path42" />
  </g>
</svg>
