<?xml version="1.0" encoding="UTF-8" standalone="no"?>
<!-- Created with Inkscape (http://www.inkscape.org/) -->

<svg
   width="70mm"
   height="15mm"
   viewBox="0 0 70 15"
   version="1.1"
   id="svg656"
   inkscape:version="1.2.2 (b0a8486541, 2022-12-01)"
   sodipodi:docname="theartlab_logo_long.svg"
   xmlns:inkscape="http://www.inkscape.org/namespaces/inkscape"
   xmlns:sodipodi="http://sodipodi.sourceforge.net/DTD/sodipodi-0.dtd"
   xmlns="http://www.w3.org/2000/svg"
   xmlns:svg="http://www.w3.org/2000/svg">
  <sodipodi:namedview
     id="namedview658"
     pagecolor="#505050"
     bordercolor="#ffffff"
     borderopacity="1"
     inkscape:showpageshadow="0"
     inkscape:pageopacity="0"
     inkscape:pagecheckerboard="true"
     inkscape:deskcolor="#505050"
     inkscape:document-units="mm"
     showgrid="false"
     showborder="true"
     inkscape:zoom="3.1251123"
     inkscape:cx="126.23546"
     inkscape:cy="40.958528"
     inkscape:window-width="1636"
     inkscape:window-height="896"
     inkscape:window-x="142"
     inkscape:window-y="162"
     inkscape:window-maximized="1"
     inkscape:current-layer="layer1" />
  <defs
     id="defs653" />
  <g
     inkscape:label="Layer 1"
     inkscape:groupmode="layer"
     id="layer1">
    <g
       id="g36"
       transform="matrix(0.35277777,0,0,-0.35277777,61.566891,8.5500051)"
       inkscape:export-filename="theartlab_logo_h50.png"
       inkscape:export-xdpi="68.388542"
       inkscape:export-ydpi="68.388542">
      <path
         d="m 9.6225418,-1.5550077 c 0,0.1492984 0.05972,0.2388774 0.179158,0.2388774 0.4777552,0 0.9256502,-0.2996631 0.9256502,-0.8062111 v -3.1363315 c 0,-0.506548 -0.418035,-0.864864 -0.8957902,-0.864864 -0.149298,0 -0.209018,0.089579 -0.209018,0.2090177 z m 0,8.7488828 c 0,0.1183722 0.08958,0.179158 0.209018,0.179158 0.3583162,0 0.8659302,-0.2399438 0.8659302,-0.7763514 V 4.0276838 c 0,-0.5961269 -0.447895,-0.8648639 -0.8659302,-0.8648639 -0.119439,0 -0.209018,0.089579 -0.209018,0.2090177 z M 4.2776617,-10.275097 c 0,-0.179158 0.089579,-0.32739 0.2985966,-0.32739 h 5.5538987 c 6.180951,0 6.210811,4.9567048 6.210811,6.4795479 0,2.3279877 -1.254106,4.32858547 -3.135265,5.01642424 v 0.059719 c 3.015826,0.92564966 3.045686,3.67273906 3.045686,5.46431916 0,2.4783525 -2.209616,5.3747407 -6.091373,5.3747407 H 4.606118 c -0.2090177,0 -0.3284563,-0.149298 -0.3284563,-0.358316 z m -8.0909037,7.9426716 c 0.02986,-0.2676706 -0.059719,-0.2676706 -1.0152287,-0.2676706 -0.1492983,0 -0.2090177,0.1492983 -0.179158,0.2985966 l 0.3881757,2.83666854 c 0.059719,0.47775466 0.1194387,0.68677236 0.2090177,0.68677236 0.089579,0 0.1492983,-0.26873696 0.2090176,-0.68677236 z M -7.3964021,11.792264 c -0.179158,0 -0.3284564,-0.209018 -0.3583161,-0.358316 l -4.0011948,-21.529887 c -0.05972,-0.29753 0.08958,-0.506548 0.358315,-0.506548 h 4.9268456 c 0.1492983,0 0.358316,0.119439 0.3881757,0.32739 l 0.5673337,4.3893711 c 0.02986,0.179158 0.1492983,0.299663 0.268737,0.299663 h 1.612422 c 0.1492984,0 0.268737,-0.089579 0.2985967,-0.2388773 l 0.5971934,-4.4789498 c 0.02986,-0.179158 0.2090177,-0.298597 0.3881757,-0.298597 H 2.487148 c 0.3284563,0 0.4777547,0.32739 0.4180353,0.6569126 L -1.1855912,11.404088 c -0.02986,0.209018 -0.179158,0.388176 -0.3881757,0.388176 z M -18.414619,-4.4215358 c -0.08958,0 -0.179158,0.089579 -0.179158,0.2090177 V 11.463808 c 0,0.179158 -0.119439,0.328456 -0.298597,0.328456 h -5.046284 c -0.209018,0 -0.388176,-0.238877 -0.388176,-0.418035 v -21.58854 c 0,-0.209018 0.149299,-0.388176 0.328457,-0.388176 h 10.689761 c 0.179158,0 0.328456,0.148232 0.328456,0.32739 v 5.5549645 c 0,0.1492984 -0.119439,0.2985967 -0.328456,0.2985967 z m -15.616607,-6.1809512 c 0.238878,0 0.418036,0.179158 0.418036,0.388176 V 5.3425757 c 0,0.268737 0.149298,0.4169689 0.358316,0.4169689 h 2.985966 c 0.238878,0 0.418036,0.179158 0.418036,0.4191018 v 5.2553016 c 0,0.238877 -0.179158,0.358316 -0.388176,0.358316 h -12.779938 c -0.179158,0 -0.268737,-0.119439 -0.268737,-0.298597 V 6.1786464 c 0,-0.179158 0.209018,-0.4191018 0.388176,-0.4191018 h 2.985967 c 0.209017,0 0.388175,-0.1482319 0.388175,-0.358316 V -10.185518 c 0,-0.237811 0.209018,-0.416969 0.418036,-0.416969 z M -52.096325,5.2529967 c 0,0.179158 0.08958,0.268737 0.238877,0.268737 0.268737,0 0.686773,-0.3892421 0.686773,-1.0749481 0,-1.3735447 0,-2.2096154 -0.716632,-2.2096154 -0.149299,0 -0.209018,0.058653 -0.209018,0.268737 z m -5.494179,6.5392673 c -0.179158,0 -0.328456,-0.149298 -0.328456,-0.358316 v -21.648259 c 0,-0.239944 0.149298,-0.388176 0.358316,-0.388176 h 5.106003 c 0.209018,0 0.358316,0.179158 0.358316,0.358316 v 9.55509375 c 0,0.20901768 0.02986,0.3572496 0.209018,0.3572496 0.328456,0 0.746491,-0.47668827 0.746491,-1.43219765 v -4.5983889 c 0,-2.8078752 1.433264,-4.3008588 3.583161,-4.3008588 0.985369,0 3.971335,0.239944 3.971335,4.3008588 0,0.1194387 -0.119438,0.3284563 -0.268737,0.4180353 -0.656912,0.268737 -0.806211,0.6270531 -0.806211,0.9853691 0,3.0456861 0,4.98549817 -3.642879,6.0316529 v 0.059719 c 2.836668,0.4180353 3.135265,3.3741425 3.135265,4.9854981 0,3.6439467 -3.135265,5.6744038 -5.762916,5.6744038 z m -8.41936,-14.1246894 c 0.02879,-0.2676706 -0.06079,-0.2676706 -1.016295,-0.2676706 -0.148232,0 -0.207951,0.1492983 -0.178092,0.2985966 l 0.388176,2.83666854 c 0.05865,0.47775466 0.119439,0.68677236 0.209018,0.68677236 0.08958,0 0.149298,-0.26873696 0.207951,-0.68677236 z m -3.58316,14.1246894 c -0.179158,0 -0.328456,-0.209018 -0.358316,-0.358316 l -4.002262,-21.529887 c -0.05865,-0.29753 0.08958,-0.506548 0.359382,-0.506548 h 4.925779 c 0.150365,0 0.358316,0.119439 0.389242,0.32739 l 0.566268,4.3893711 c 0.03093,0.179158 0.150364,0.299663 0.268737,0.299663 h 1.613488 c 0.149298,0 0.268737,-0.089579 0.29753,-0.2388773 l 0.597194,-4.4789498 c 0.03093,-0.179158 0.210084,-0.298597 0.389242,-0.298597 h 4.837266 c 0.32739,0 0.477755,0.32739 0.416969,0.6569126 l -4.089708,21.3496624 c -0.02986,0.209018 -0.179158,0.388176 -0.388176,0.388176 z"
         style="fill:#f9b49f;fill-opacity:1;fill-rule:nonzero;stroke:none;stroke-width:1.06642"
         id="path38"
         inkscape:export-filename="theartlab_logo_long_h100.png"
         inkscape:export-xdpi="258.07074"
         inkscape:export-ydpi="258.07074" />
    </g>
    <g
       id="g44"
       transform="matrix(0.37620811,0,0,-0.37620811,19.720709,7.8810492)">
      <path
         d="M 0,0 C 0,0 2.994,3.739 15.476,3.739 27.96,3.739 30.376,0 30.376,0 c 0,0 -3.715,-2.598 -14.72,-2.598 C 4.651,-2.598 0,0 0,0"
         style="fill:#212752;fill-opacity:1;fill-rule:nonzero;stroke:none"
         id="path46" />
    </g>
    <g
       id="g48"
       transform="matrix(0.37620811,0,0,-0.37620811,19.279831,7.2449209)">
      <path
         d="m 0,0 c 0,-2.109 -0.099,-6.038 2.297,-7.284 1.497,-0.863 2.497,0.671 3.894,0.478 1.498,-0.192 1.399,-1.916 1.698,-2.971 0.799,-3.451 3.196,-3.259 5.194,-0.671 0.798,1.151 2.096,2.492 3.194,0.863 0.6,-0.958 -0.1,-2.683 0.5,-3.737 0.498,-0.958 2.097,-1.918 3.296,-1.438 1.298,0.48 1.298,2.396 1.896,3.354 0.5,1.054 1.898,2.396 3.196,1.821 1.298,-0.575 1.398,-2.874 2.096,-3.929 2.598,-3.93 4.595,1.821 4.894,3.929 0.4,2.684 0.998,5.463 1.198,8.147 C 23.168,-5.655 10.385,-4.793 0.099,-1.535"
         style="fill:#f9b49f;fill-opacity:1;fill-rule:nonzero;stroke:none"
         id="path50" />
    </g>
    <g
       id="g52"
       transform="matrix(0.37620811,0,0,-0.37620811,25.542949,5.6842201)">
      <path
         d="m 0,0 c -10.729,0 -16.582,-2.443 -16.582,-3.7 0,-1.255 5.853,-3.7 16.582,-3.7 10.73,0 16.583,2.445 16.583,3.7 C 16.583,-2.443 10.73,0 0,0 m 0,-9.2 c -9.134,0 -18.382,1.889 -18.382,5.5 0,3.611 9.248,5.5 18.382,5.5 9.135,0 18.383,-1.889 18.383,-5.5 0,-3.611 -9.248,-5.5 -18.383,-5.5"
         style="fill:#f9b49f;fill-opacity:1;fill-rule:nonzero;stroke:none"
         id="path54" />
    </g>
    <path
       d="m 13.176946,6.9344763 c 0,-0.1896088 0.08879,-0.2656017 0.189609,-0.2656017 0.202399,0 0.214814,0.088726 0.214814,0.8976349 0,0.063239 -0.03762,0.063239 -0.328429,0.063239 -0.038,0 -0.07599,-0.025167 -0.07599,-0.063239 z M 11.05325,10.271817 c 0,1.440878 0.771228,2.401336 2.123696,2.401336 1.163235,0 2.275306,-0.480037 2.275306,-2.098111 V 9.7661967 c 0,-0.076035 -0.05041,-0.1267862 -0.126405,-0.1391993 l -1.630486,-0.088406 c -0.07599,0 -0.113992,0.050441 -0.113992,0.1007764 v 0.7712332 c 0,0.189609 -0.113615,0.265601 -0.202024,0.265601 -0.113614,0 -0.202399,-0.07604 -0.202399,-0.278025 V 8.4136818 c 0,-0.063558 0.02558,-0.101203 0.07599,-0.101203 h 2.110903 c 0.06321,0 0.113615,-0.050761 0.113615,-0.1139893 V 7.4276409 c 0,-1.2388563 -0.821262,-2.3385026 -2.249724,-2.3385026 -1.024039,0 -2.174484,0.5560297 -2.174484,2.0476907 z m -5.0558598,2.28772 c 0,0.05044 0.050409,0.113616 0.1012029,0.113616 h 1.8073044 c 0.050793,0 0.088406,-0.05044 0.088406,-0.100776 V 7.3517332 c 0,-0.1896089 0.1012029,-0.2528154 0.2024005,-0.2528154 0.101203,0 0.2023995,0.063239 0.2023995,0.2528154 v 5.2334298 c 0,0.05044 0.037623,0.08798 0.088406,0.08798 h 1.7444775 c 0.03762,0 0.07562,-0.03764 0.07562,-0.07561 v -6.2063 c 0,-0.9860409 -0.6824411,-1.3020521 -1.2132702,-1.3020521 -0.3668037,0 -0.6700275,0.1640255 -0.8848422,0.3664207 -0.063207,0.050762 -0.1139904,0.076036 -0.1264056,0.076036 -0.012786,0 -0.037996,-0.025167 -0.037996,-0.1139893 V 3.1171311 c 0,-0.076035 -0.037997,-0.1136054 -0.1264056,-0.1136054 h -1.782474 c -0.088406,0 -0.1388208,0.037644 -0.1388208,0.1516018 z M 2.6980451,10.688658 c 0,1.516871 0.5564114,1.984495 1.314847,1.984495 1.2892658,0 1.2892658,-1.251269 1.2892658,-1.971709 0,-0.07561 -0.050783,-0.07561 -0.4932092,-0.07561 -0.037996,0 -0.07562,-0.05076 -0.07562,-0.101522 V 7.2001314 c 0,-0.1012029 0.050409,-0.1012029 0.4420447,-0.1012029 0.050783,0 0.088779,-0.037965 0.088779,-0.088406 V 5.1776401 c 0,-0.088406 -0.037997,-0.088406 -0.4300059,-0.088406 -0.063206,0 -0.1008191,-0.037965 -0.1008191,-0.114 V 3.9135737 c 0,-0.088406 0,-0.1139892 -0.1264066,-0.1139892 H 2.786451 c -0.05041,0 -0.088406,0.037964 -0.088406,0.088833 v 1.11207 c 0,0.088833 -0.02521,0.088833 -0.3160145,0.088833 -0.02521,0 -0.050409,0.037644 -0.050409,0.075609 v 1.8456794 c 0,0.088406 0.02521,0.088406 0.2904333,0.088406 0.050783,0 0.075993,0.037964 0.075993,0.088406 z"
       style="fill:#f9b49f;fill-opacity:1;fill-rule:nonzero;stroke:none;stroke-width:0.376208"
       id="path42" />
  </g>
</svg>
